ffmpeg version 3.4.8-0ubuntu0.2 Copyright (c) 2000-2020 the FFmpeg developers
  built with gcc 7 (Ubuntu 7.5.0-3ubuntu1~18.04)
  configuration: --prefix=/usr --extra-version=0ubuntu0.2 --toolchain=hardened --libdir=/usr/lib/x86_64-linux-gnu --incdir=/usr/include/x86_64-linux-gnu --enable-gpl --disable-stripping --enable-avresample --enable-avisynth --enable-gnutls --enable-ladspa --enable-libass --enable-libbluray --enable-libbs2b --enable-libcaca --enable-libcdio --enable-libflite --enable-libfontconfig --enable-libfreetype --enable-libfribidi --enable-libgme --enable-libgsm --enable-libmp3lame --enable-libmysofa --enable-libopenjpeg --enable-libopenmpt --enable-libopus --enable-libpulse --enable-librubberband --enable-librsvg --enable-libshine --enable-libsnappy --enable-libsoxr --enable-libspeex --enable-libssh --enable-libtheora --enable-libtwolame --enable-libvorbis --enable-libvpx --enable-libwavpack --enable-libwebp --enable-libx265 --enable-libxml2 --enable-libxvid --enable-libzmq --enable-libzvbi --enable-omx --enable-openal --enable-opengl --enable-sdl2 --enable-libdc1394 --enable-libdrm --enable-libiec61883 --enable-chromaprint --enable-frei0r --enable-libopencv --enable-libx264 --enable-shared
  libavutil      55. 78.100 / 55. 78.100
  libavcodec     57.107.100 / 57.107.100
  libavformat    57. 83.100 / 57. 83.100
  libavdevice    57. 10.100 / 57. 10.100
  libavfilter     6.107.100 /  6.107.100
  libavresample   3.  7.  0 /  3.  7.  0
  libswscale      4.  8.100 /  4.  8.100
  libswresample   2.  9.100 /  2.  9.100
  libpostproc    54.  7.100 / 54.  7.100
[rawvideo @ 0x5559003c7a20] Estimating duration from bitrate, this may be inaccurate
Input #0, rawvideo, from '../../SVC-Encoder-20220109T061506Z-001/SVC-Encoder/Dataset/RollerCoaster/ERP_8x8/tile_yuv/Tile_48_480x240.yuv':
  Duration: 00:00:10.00, start: 0.000000, bitrate: 41472 kb/s
    Stream #0:0: Video: rawvideo (I420 / 0x30323449), yuv420p, 480x240, 41472 kb/s, 30 tbr, 30 tbn, 30 tbc
Stream mapping:
  Stream #0:0 -> #0:0 (rawvideo (native) -> h264 (libx264))
Press [q] to stop, [?] for help
[libx264 @ 0x5559003d4c60] using cpu capabilities: MMX2 SSE2Fast LZCNT SSSE3 SSE4.2 AVX
[libx264 @ 0x5559003d4c60] profile High, level 2.1
Output #0, rawvideo, to 'RollerCoaster_Tile_48_480x240_x264_QP_40.h264':
  Metadata:
    encoder         : Lavf57.83.100
    Stream #0:0: Video: h264 (libx264), yuv420p, 480x240, q=-1--1, 30 fps, 30 tbn, 30 tbc
    Metadata:
      encoder         : Lavc57.107.100 libx264
    Side data:
      cpb: bitrate max/min/avg: 0/0/0 buffer size: 0 vbv_delay: -1
frame=  300 fps=0.0 q=46.0 LPSNR=Y:inf U:inf V:inf *:inf size=      25kB time=00:00:09.93 bitrate=  20.6kbits/s speed=20.6x    
video:25kB audio:0kB subtitle:0kB other streams:0kB global headers:0kB muxing overhead: 0.000000%
[libx264 @ 0x5559003d4c60] frame I:2     Avg QP:36.58  size:  3539  PSNR Mean Y:35.40 U:41.43 V:40.18 Avg:36.57 Global:36.51
[libx264 @ 0x5559003d4c60] frame P:76    Avg QP:38.16  size:   147  PSNR Mean Y:34.47 U:41.20 V:40.24 Avg:35.74 Global:35.72
[libx264 @ 0x5559003d4c60] frame B:222   Avg QP:45.37  size:    33  PSNR Mean Y:34.18 U:41.18 V:40.22 Avg:35.48 Global:35.47
[libx264 @ 0x5559003d4c60] consecutive B-frames:  0.7%  1.3%  2.0% 96.0%
[libx264 @ 0x5559003d4c60] mb I  I16..4: 35.8% 58.1%  6.1%
[libx264 @ 0x5559003d4c60] mb P  I16..4:  0.2%  0.1%  0.0%  P16..4: 19.3%  0.3%  0.0%  0.0%  0.0%    skip:80.1%
[libx264 @ 0x5559003d4c60] mb B  I16..4:  0.0%  0.0%  0.0%  B16..8:  3.6%  0.0%  0.0%  direct: 0.0%  skip:96.4%  L0:38.7% L1:61.3% BI: 0.0%
[libx264 @ 0x5559003d4c60] 8x8 transform intra:55.6% inter:94.8%
[libx264 @ 0x5559003d4c60] coded y,uvDC,uvAC intra: 42.0% 56.7% 11.3% inter: 0.2% 0.3% 0.0%
[libx264 @ 0x5559003d4c60] i16 v,h,dc,p: 14% 45% 15% 26%
[libx264 @ 0x5559003d4c60] i8 v,h,dc,ddl,ddr,vr,hd,vl,hu:  6% 38% 21%  4%  3%  3%  7%  3% 15%
[libx264 @ 0x5559003d4c60] i4 v,h,dc,ddl,ddr,vr,hd,vl,hu: 11% 25% 28%  7%  4%  5%  8%  5%  7%
[libx264 @ 0x5559003d4c60] i8c dc,h,v,p: 50% 38%  4%  8%
[libx264 @ 0x5559003d4c60] Weighted P-Frames: Y:0.0% UV:0.0%
[libx264 @ 0x5559003d4c60] ref P L0: 62.7% 18.7% 13.2%  5.5%
[libx264 @ 0x5559003d4c60] ref B L0: 68.7% 26.6%  4.7%
[libx264 @ 0x5559003d4c60] ref B L1: 73.2% 26.8%
[libx264 @ 0x5559003d4c60] PSNR Mean Y:34.264 U:41.189 V:40.227 Avg:35.553 Global:35.538 kb/s:20.47
